<svg xmlns:osb="http://www.openswatchbook.org/uri/2009/osb" xmlns="http://www.w3.org/2000/svg" xmlns:xlink="http://www.w3.org/1999/xlink" viewBox="0 0 112.22718 41.666424" height="157.479" width="424.166"><defs><linearGradient gradientTransform="matrix(1.58956 0 0 1.26766 -93.052 -25.126)" gradientUnits="userSpaceOnUse" y2="114.07" x2="113.418" y1="114.07" x1="106.568" id="b" xlink:href="#a"/><linearGradient osb:paint="solid" id="a"><stop offset="0" stop-color="#f5ee20"/></linearGradient></defs><text style="line-height:1.25;-inkscape-font-specification:'Odin Rounded'" x="57.824" y="149.423" font-weight="400" font-size="28.896" font-family="Odin Rounded" letter-spacing="0" word-spacing="0" fill="#ff861d" stroke="#000" stroke-width=".5" transform="translate(-58.638 -114.653)"><tspan x="57.824" y="149.423">P</tspan></text><text style="line-height:1.25;-inkscape-font-specification:'Odin Rounded'" x="73.593" y="149.427" font-weight="400" font-size="28.896" font-family="Odin Rounded" letter-spacing="0" word-spacing="0" fill="#6f2b85" stroke="#000" stroke-width=".5" transform="translate(-58.638 -114.653)"><tspan x="73.593" y="149.427">l</tspan></text><text style="line-height:1.25;-inkscape-font-specification:'Odin Rounded'" x="81.187" y="149.411" font-weight="400" font-size="28.896" font-family="Odin Rounded" letter-spacing="0" word-spacing="0" fill="#231f98" stroke="#000023" stroke-width=".5" transform="translate(-58.638 -114.653)"><tspan x="81.187" y="149.411">a</tspan></text><text style="line-height:1.25;-inkscape-font-specification:'Odin Rounded'" x="95.262" y="149.337" font-weight="400" font-size="28.896" font-family="Odin Rounded" letter-spacing="0" word-spacing="0" fill="#399c3b" stroke="#000023" stroke-width=".5" transform="translate(-58.638 -114.653)"><tspan x="95.262" y="149.337">y</tspan></text><text style="line-height:1.25;-inkscape-font-specification:'Odin Rounded'" x="110.968" y="149.434" font-weight="400" font-size="28.896" font-family="Odin Rounded" letter-spacing="0" word-spacing="0" fill="#37a0c7" stroke="#000023" stroke-width=".5" transform="translate(-58.638 -114.653)"><tspan x="110.968" y="149.434">r</tspan></text><g transform="translate(5.859 -117.413) scale(.80035)"><ellipse ry="8.926" rx="7.656" cy="181.029" cx="79.839" fill="#edc9a0" stroke="#181407" stroke-width=".5"/><g transform="translate(0 1.12)" stroke-width=".5"><ellipse cx="78.943" cy="179.759" rx=".261" ry=".336" fill="#edc9a0" stroke="#181407"/><ellipse cx="80.773" cy="179.722" rx=".261" ry=".336" fill="#edc9a0" stroke="#181407"/><path d="M77.737 178.55c.247-.405.896-.76 1.42-.52M81.857 178.45c-.246-.404-.895-.76-1.42-.52" fill="none" stroke="#000" stroke-linecap="round"/></g><path d="M76.203 183c.314 6.393 7.337 6.236 7.497 0" fill="none" stroke="#000" stroke-width=".242"/><path d="M89.062 179.399c-3.96 1.148-12.41-4.137-12.035-6.975 5.837-3.899 13.144 2.762 12.035 6.975z" fill="#d1a517" stroke="#000" stroke-width=".5"/><path d="M71.261 179.963c4.7-.918 5.273-2.086 6.046-3.085.684-1.498.58-1.991.47-3.82-3.97-2.043-7.662 3.11-6.516 6.905z" fill="#d1a517" stroke="#000" stroke-width=".5"/><path d="M71.907 189.846c2.424-1.19 2.775-5.371 2.664-6.594-.44-1.522.361-1.706-1.82-3.45-5.645.41-.964 6.833-.844 10.044zM88.663 189.464c-2.425-1.19-2.775-5.372-2.665-6.594.44-1.522-.36-1.707 1.821-3.45 5.645.41.964 6.833.844 10.044z" fill="#d1a517" stroke="#000" stroke-width=".5"/></g><g transform="matrix(.74634 0 0 .74634 23.358 -59.22)"><ellipse cx="84.891" cy="117.694" rx="7.656" ry="8.926" fill="#edc9a0" stroke="#181407" stroke-width=".5"/><ellipse cx="83.995" cy="116.424" rx=".261" ry=".336" fill="#edc9a0" stroke="#181407" stroke-width=".5"/><ellipse cx="85.825" cy="116.386" rx=".261" ry=".336" fill="#edc9a0" stroke="#181407" stroke-width=".5"/><path d="M82.79 115.215c.245-.405.895-.76 1.42-.52M86.91 115.115c-.247-.405-.896-.76-1.42-.52" fill="none" stroke="#000" stroke-width=".5" stroke-linecap="round"/><path d="M80.522 119.225c.376 6.37 8.771 6.215 8.963 0" fill="none" stroke="#000" stroke-width=".265"/><path d="M77.579 119.342a1.88 1.932 0 0 1-2.113-.764 1.88 1.932 0 0 1 .098-2.3 1.88 1.932 0 0 1 2.17-.57" fill="#edc9a0" stroke="#181407" stroke-width=".5" stroke-linecap="round"/><path d="M77.267 116.878c-.498-.035-.899.356-.99.819.061.485.575.243.814.07.173-.038.262.143.15.266" fill="none" stroke="#000" stroke-width=".265"/><g><path d="M92.135 119.439a1.88 1.932 3.032 0 1 2.15-.651 1.88 1.932 3.032 0 1 .024-2.302 1.88 1.932 3.032 0 1-2.137-.684" fill="#edc9a0" stroke="#181407" stroke-width=".5" stroke-linecap="round"/><path d="M92.577 116.995c.499-.009.878.403.945.87-.087.482-.587.212-.816.027-.171-.047-.27.129-.164.258" fill="none" stroke="#000" stroke-width=".265"/></g></g><path d="M80.626 25.076c-.92 1.035.664 2.576 1.749 1.856.485-.665-.051-2.154.944-1.91.436-.68 1.113-.918 1.916-.486.674-1.099 1.626-.601 2.596-1.05 1.105-.237 1.124 1.038 1.888 1.135-.525 1.27 1.208.73 1.165 1.847.599.94 2.383 1.38 2.666-.355.664-.364.792-2.04-1.06-2.257.004-.995.78-2.06-1.458-2.44-.716-.828-1.656-2.127-3.49-.718-.3-.177-.78-.89-1.534.238-.813-.642-1.83-1.896-2.91-.285-.644.569-1.642-.214-1.756 1.219-1.563-.009-1.622 2.412-.716 3.206z" fill="#844526" stroke="#000" stroke-width=".37317"/><path d="M17.652 11.149v3.173" fill="#767676" stroke="#ab9d9d" stroke-width=".8"/><path d="M76.583 113.092c-.198-.238 9.915 3.978 10.65 12.777-3.202-2.172-8.125-1.684-10.77-.221l-.12-12.556z" fill="url(#b)" transform="matrix(.97927 0 0 .87718 -57.24 -98.384)"/><path d="M17.813.731c.31.107-13.137.617-17.813 9.924 2.95-.947 5.77-.009 7.093 1.37C8.266 4.464 17.855.709 17.813.732z" fill="#231f98"/><path d="M17.522.818c.194-.209-9.71 3.49-10.43 11.208 3.136-1.906 7.958-1.477 10.547-.194L17.756.818z" fill="#399c3b"/><path d="M17.255.823c.023.017.259-.796.523-.822.284-.028.548.762.62.829z" fill="#d91b33"/><path d="M17.545.674c-.308.106 13.138.617 17.814 9.924-2.95-.947-5.77-.01-7.093 1.37C27.092 4.406 17.503.65 17.546.674z" fill="#e80000"/><g transform="rotate(36.307 68.984 -57.837) scale(.40379)"><ellipse ry="4.402" rx="3.04" cy="104.679" cx="148.127"/><ellipse ry="1.885" rx="2.117" cy="100.315" cx="148.134"/><ellipse ry=".306" rx=".298" cy="99.522" cx="147.232" fill="#fff"/><ellipse ry=".306" rx=".298" cy="99.513" cx="148.828" fill="#fff"/><g transform="matrix(.98865 0 0 .79413 11.797 22.29)"><path d="M137.884 98.218c-5.53-1.255-7.212 12.69-1.325 10.54 1.365-.08 1.492-10.464 1.325-10.54z" fill="#e80000" stroke="#000" stroke-width=".265"/><ellipse cx="-134.711" cy="-106.126" rx=".702" ry=".748" transform="scale(-1)"/><ellipse cx="-136.423" cy="-100.62" rx=".748" ry=".702" transform="scale(-1)"/><ellipse cx="-134.799" cy="-102.485" rx=".741" ry=".798" transform="scale(-1)"/><ellipse cx="-136.25" cy="-104.481" rx=".795" ry=".891" transform="scale(-1)"/></g><g transform="matrix(-.98865 0 0 .79413 284.547 22.209)"><path d="M137.884 98.218c-5.53-1.255-7.212 12.69-1.325 10.54 1.365-.08 1.492-10.464 1.325-10.54z" fill="#e80000" stroke="#000" stroke-width=".265"/><ellipse cx="-134.711" cy="-106.126" rx=".702" ry=".748" transform="scale(-1)"/><ellipse cx="-136.423" cy="-100.62" rx=".748" ry=".702" transform="scale(-1)"/><ellipse cx="-134.799" cy="-102.485" rx=".741" ry=".798" transform="scale(-1)"/><ellipse cx="-136.25" cy="-104.481" rx=".795" ry=".891" transform="scale(-1)"/></g></g><g transform="rotate(-51.086 35.083 65.339) scale(.40379)"><ellipse ry="4.402" rx="3.04" cy="104.679" cx="148.127"/><ellipse ry="1.885" rx="2.117" cy="100.315" cx="148.134"/><ellipse ry=".306" rx=".298" cy="99.522" cx="147.232" fill="#fff"/><ellipse ry=".306" rx=".298" cy="99.513" cx="148.828" fill="#fff"/><g transform="matrix(.98865 0 0 .79413 11.797 22.29)"><path d="M137.884 98.218c-5.53-1.255-7.212 12.69-1.325 10.54 1.365-.08 1.492-10.464 1.325-10.54z" fill="#e80000" stroke="#000" stroke-width=".265"/><ellipse cx="-134.711" cy="-106.126" rx=".702" ry=".748" transform="scale(-1)"/><ellipse cx="-136.423" cy="-100.62" rx=".748" ry=".702" transform="scale(-1)"/><ellipse cx="-134.799" cy="-102.485" rx=".741" ry=".798" transform="scale(-1)"/><ellipse cx="-136.25" cy="-104.481" rx=".795" ry=".891" transform="scale(-1)"/></g><g transform="matrix(-.98865 0 0 .79413 284.547 22.209)"><path d="M137.884 98.218c-5.53-1.255-7.212 12.69-1.325 10.54 1.365-.08 1.492-10.464 1.325-10.54z" fill="#e80000" stroke="#000" stroke-width=".265"/><ellipse cx="-134.711" cy="-106.126" rx=".702" ry=".748" transform="scale(-1)"/><ellipse cx="-136.423" cy="-100.62" rx=".748" ry=".702" transform="scale(-1)"/><ellipse cx="-134.799" cy="-102.485" rx=".741" ry=".798" transform="scale(-1)"/><ellipse cx="-136.25" cy="-104.481" rx=".795" ry=".891" transform="scale(-1)"/></g></g><g transform="rotate(-51.681 -66.702 137.514)"><g transform="rotate(36.307 -99.446 151.204) scale(.40379)"><ellipse ry="4.402" rx="3.04" cy="104.679" cx="148.127"/><ellipse ry="1.885" rx="2.117" cy="100.315" cx="148.134"/><ellipse ry=".306" rx=".298" cy="99.522" cx="147.232" fill="#fff"/><ellipse ry=".306" rx=".298" cy="99.513" cx="148.828" fill="#fff"/><path d="M137.884 98.218c-5.53-1.255-7.212 12.69-1.325 10.54 1.365-.08 1.492-10.464 1.325-10.54z" fill="#ff861d" stroke="#000" stroke-width=".265" transform="matrix(.98865 0 0 .79413 11.797 22.29)"/><path d="M137.884 98.218c-5.53-1.255-7.212 12.69-1.325 10.54 1.365-.08 1.492-10.464 1.325-10.54z" fill="#ff861d" stroke="#000" stroke-width=".265" transform="matrix(-.98865 0 0 .79413 284.547 22.209)"/></g><ellipse transform="matrix(-.3217 -.23637 .18986 -.2584 68.73 98.31)" ry=".748" rx=".702" cy="-106.126" cx="-134.711"/><ellipse transform="matrix(-.3217 -.23637 .18986 -.2584 68.73 98.31)" ry=".702" rx=".748" cy="-100.62" cx="-136.423"/><ellipse transform="matrix(-.3217 -.23637 .18986 -.2584 68.73 98.31)" ry=".798" rx=".741" cy="-102.485" cx="-134.799"/><ellipse transform="matrix(-.3217 -.23637 .18986 -.2584 68.73 98.31)" ry=".891" rx=".795" cy="-104.481" cx="-136.25"/><ellipse transform="matrix(.3217 .23637 .18986 -.2584 157.502 163.495)" ry=".748" rx=".702" cy="-106.126" cx="-134.711"/><ellipse transform="matrix(.3217 .23637 .18986 -.2584 157.502 163.495)" ry=".702" rx=".748" cy="-100.62" cx="-136.423"/><ellipse transform="matrix(.3217 .23637 .18986 -.2584 157.502 163.495)" ry=".798" rx=".741" cy="-102.485" cx="-134.799"/><ellipse transform="matrix(.3217 .23637 .18986 -.2584 157.502 163.495)" ry=".891" rx=".795" cy="-104.481" cx="-136.25"/></g><g transform="matrix(.4037 -.0087 .0087 .4037 49.414 -9.331)"><ellipse ry="4.402" rx="3.04" cy="104.679" cx="148.127"/><ellipse ry="1.885" rx="2.117" cy="100.315" cx="148.134"/><ellipse ry=".306" rx=".298" cy="99.522" cx="147.232" fill="#fff"/><ellipse ry=".306" rx=".298" cy="99.513" cx="148.828" fill="#fff"/><g transform="matrix(.98865 0 0 .79413 11.797 22.29)"><path d="M137.884 98.218c-5.53-1.255-7.212 12.69-1.325 10.54 1.365-.08 1.492-10.464 1.325-10.54z" fill="#e80000" stroke="#000" stroke-width=".265"/><ellipse cx="-134.711" cy="-106.126" rx=".702" ry=".748" transform="scale(-1)"/><ellipse cx="-136.423" cy="-100.62" rx=".748" ry=".702" transform="scale(-1)"/><ellipse cx="-134.799" cy="-102.485" rx=".741" ry=".798" transform="scale(-1)"/><ellipse cx="-136.25" cy="-104.481" rx=".795" ry=".891" transform="scale(-1)"/></g><g transform="matrix(-.98865 0 0 .79413 284.547 22.209)"><path d="M137.884 98.218c-5.53-1.255-7.212 12.69-1.325 10.54 1.365-.08 1.492-10.464 1.325-10.54z" fill="#e80000" stroke="#000" stroke-width=".265"/><ellipse cx="-134.711" cy="-106.126" rx=".702" ry=".748" transform="scale(-1)"/><ellipse cx="-136.423" cy="-100.62" rx=".748" ry=".702" transform="scale(-1)"/><ellipse cx="-134.799" cy="-102.485" rx=".741" ry=".798" transform="scale(-1)"/><ellipse cx="-136.25" cy="-104.481" rx=".795" ry=".891" transform="scale(-1)"/></g></g></svg>